<?xml version="1.0" standalone="no"?>
<!DOCTYPE svg PUBLIC "-//W3C//DTD SVG 20010904//EN"
 "http://www.w3.org/TR/2001/REC-SVG-20010904/DTD/svg10.dtd">
<svg version="1.0" xmlns="http://www.w3.org/2000/svg"
 width="1733.000000pt" height="1733.000000pt" viewBox="0 0 1733.000000 1733.000000"
 preserveAspectRatio="xMidYMid meet">
<metadata>
Created by potrace 1.11, written by Peter Selinger 2001-2013
</metadata>
<g transform="translate(0.000000,1733.000000) scale(0.100000,-0.100000)"
fill="#000000" stroke="none">
<path d="M13730 15659 c-36 -11 -74 -22 -84 -24 -34 -8 -200 -92 -255 -130
-81 -56 -201 -167 -201 -186 0 -5 -7 -9 -15 -9 -8 0 -15 -5 -15 -11 0 -6 -6
-16 -12 -23 -18 -18 -46 -57 -63 -86 -36 -64 -103 -200 -98 -200 3 0 1 -6 -4
-12 -6 -7 -21 -51 -34 -98 -20 -74 -23 -107 -24 -265 0 -196 3 -225 35 -330
20 -65 100 -243 121 -269 5 -6 35 -45 68 -86 32 -41 74 -91 93 -111 18 -20 54
-60 78 -90 25 -29 50 -57 55 -63 6 -6 26 -31 45 -56 19 -25 37 -47 40 -50 3
-3 29 -34 58 -70 29 -36 61 -74 70 -85 28 -34 82 -98 110 -132 15 -18 43 -50
62 -72 19 -22 49 -66 65 -98 16 -32 32 -60 35 -63 3 -3 6 -12 8 -20 2 -8 8
-17 13 -18 5 -2 7 -8 3 -13 -3 -5 0 -9 7 -9 7 0 10 -3 6 -6 -3 -3 5 -24 19
-45 13 -21 21 -39 17 -39 -5 0 -3 -4 2 -8 6 -4 19 -24 30 -45 11 -20 30 -48
43 -62 12 -14 21 -25 18 -25 -5 0 55 -95 72 -116 19 -21 152 -306 152 -324 0
-5 5 -10 10 -10 6 0 10 -8 10 -18 0 -10 3 -22 8 -26 4 -4 7 -11 8 -14 1 -10
42 -103 54 -124 5 -10 10 -24 10 -32 0 -7 7 -19 15 -26 8 -7 13 -16 10 -20 -6
-10 52 -153 87 -212 15 -27 25 -48 22 -48 -4 0 -1 -7 6 -15 7 -8 9 -15 6 -15
-4 0 -1 -10 6 -22 7 -13 12 -26 13 -30 0 -3 3 -10 8 -14 4 -4 7 -18 7 -31 0
-13 4 -23 8 -23 5 0 9 -6 9 -12 1 -7 26 -72 56 -144 31 -71 59 -143 63 -160 4
-16 10 -34 15 -39 4 -6 10 -22 12 -35 3 -14 14 -47 25 -75 11 -27 21 -54 22
-60 1 -5 6 -21 11 -34 5 -13 10 -34 11 -47 1 -13 5 -24 8 -24 8 0 45 -141 55
-205 5 -36 21 -108 25 -112 2 -2 3 -11 4 -20 1 -10 5 -27 9 -38 3 -11 8 -31
11 -45 3 -14 8 -36 11 -50 4 -14 8 -34 10 -45 2 -11 6 -29 9 -40 2 -11 28
-137 56 -280 29 -143 54 -267 58 -275 3 -8 5 -18 4 -22 -1 -4 8 -51 19 -105
11 -53 20 -124 19 -158 -1 -33 -1 -64 0 -70 1 -5 1 -14 0 -20 -2 -5 -5 -237
-6 -515 l-3 -505 -4544 -1 c-2498 -1 -4558 -4 -4577 -8 -66 -12 -75 -14 -120
-25 -134 -34 -316 -129 -424 -222 -60 -51 -145 -140 -164 -171 -9 -16 -20 -28
-24 -28 -4 0 -8 -7 -8 -15 0 -8 -4 -15 -8 -15 -7 0 -105 -186 -124 -235 -19
-51 -48 -166 -55 -220 -15 -110 -9 -287 12 -398 22 -112 106 -298 183 -407 45
-63 217 -240 233 -240 4 0 14 -6 21 -13 52 -50 260 -149 361 -172 12 -2 54
-12 92 -20 63 -15 490 -16 4358 -16 l4287 -1 15 -27 c8 -16 11 -31 8 -35 -3
-3 -7 -25 -8 -48 -2 -24 -4 -43 -5 -43 -1 0 -3 -9 -5 -20 -7 -49 -15 -78 -30
-108 -9 -17 -18 -41 -21 -51 -2 -11 -9 -23 -16 -28 -7 -4 -10 -8 -5 -8 7 0
-40 -99 -52 -110 -4 -3 -6 -9 -6 -15 0 -5 -25 -59 -54 -120 -30 -60 -53 -113
-53 -117 1 -5 -3 -8 -9 -8 -5 0 -8 -4 -5 -9 4 -5 3 -11 -2 -13 -4 -1 -37 -61
-72 -133 -36 -71 -68 -132 -71 -135 -3 -3 -17 -29 -30 -57 -13 -29 -28 -53
-32 -53 -5 0 -5 -4 -2 -10 3 -5 1 -10 -4 -10 -6 0 -10 -3 -9 -7 4 -18 -96
-208 -132 -250 -6 -7 -8 -13 -5 -13 3 0 -5 -15 -19 -33 -15 -19 -26 -39 -26
-45 0 -7 -4 -12 -10 -12 -5 0 -10 -6 -10 -14 0 -8 -7 -16 -15 -20 -8 -3 -15
-12 -15 -21 0 -8 -4 -15 -8 -15 -4 0 -16 -15 -27 -32 -10 -18 -23 -37 -27 -43
-26 -31 -88 -120 -88 -125 0 -4 -9 -18 -20 -31 -12 -12 -30 -38 -41 -56 -11
-18 -24 -33 -27 -33 -4 0 -18 -18 -32 -40 -13 -22 -28 -40 -32 -40 -4 0 -8 -7
-8 -16 0 -8 -4 -12 -10 -9 -5 3 -10 2 -10 -4 0 -10 -90 -122 -128 -158 -13
-13 -21 -23 -18 -23 7 0 -374 -382 -454 -456 -71 -65 -129 -133 -185 -217 -14
-21 -25 -40 -25 -43 0 -3 -10 -20 -22 -37 -13 -18 -22 -34 -22 -37 1 -3 -6
-21 -17 -41 -10 -20 -15 -39 -12 -43 4 -3 1 -6 -6 -6 -7 0 -10 -4 -7 -8 3 -5
-1 -20 -9 -35 -7 -14 -11 -28 -8 -31 3 -3 1 -11 -5 -19 -6 -7 -13 -26 -16 -42
-2 -17 -5 -30 -6 -30 -2 0 -4 -11 -5 -25 -2 -14 -6 -45 -10 -70 -9 -62 -10
-223 -2 -291 9 -66 11 -78 27 -139 6 -25 14 -57 17 -72 3 -16 10 -28 15 -28 5
0 7 -4 4 -8 -7 -12 68 -166 121 -245 103 -157 242 -282 415 -375 62 -34 170
-79 208 -86 14 -3 40 -9 59 -15 19 -6 50 -13 70 -16 20 -3 48 -8 61 -12 51
-12 208 -15 230 -3 13 7 20 7 16 2 -6 -10 7 -10 34 1 8 3 38 10 65 16 144 27
251 67 370 139 134 80 230 166 339 304 36 46 75 95 88 109 72 83 278 337 343
424 16 22 36 46 43 54 8 8 40 49 71 90 31 42 59 77 63 79 4 2 24 27 45 55 20
29 40 54 43 57 3 3 50 61 103 130 54 69 109 138 122 153 14 16 77 108 141 205
65 97 122 180 128 184 7 5 7 8 1 8 -6 0 -6 3 1 8 6 4 28 34 49 67 22 33 43 62
47 63 5 2 8 9 9 15 0 7 20 39 44 72 25 33 52 75 61 93 9 17 20 32 25 32 5 0 9
5 9 10 0 6 12 28 26 50 21 31 177 363 316 670 11 25 44 95 74 156 30 61 54
116 54 122 0 7 5 12 10 12 6 0 10 8 10 18 0 10 7 27 15 38 8 12 11 24 8 28 -3
3 -1 6 5 6 7 0 11 3 10 8 -1 4 4 18 10 32 10 25 53 121 77 175 8 17 88 280
179 585 139 468 185 636 200 740 12 82 18 117 23 130 6 15 12 45 18 90 1 14 4
26 5 28 1 1 4 11 5 22 1 11 4 21 5 23 1 1 3 13 5 27 4 30 15 95 22 124 2 11 6
30 7 41 2 11 4 20 6 20 1 0 3 11 5 25 2 14 6 41 10 60 3 19 7 45 8 58 0 12 3
22 7 22 3 0 6 13 7 28 1 15 5 41 8 57 4 17 8 41 10 55 2 14 4 25 5 25 3 0 5
13 14 75 3 19 8 53 11 75 4 22 8 58 10 80 2 22 4 40 5 40 2 0 4 18 6 40 2 22
5 49 8 60 2 11 5 26 5 33 1 6 8 12 16 12 8 0 15 5 15 11 0 5 -5 7 -10 4 -5 -3
-10 -1 -10 4 0 6 5 11 10 11 6 0 10 9 10 21 0 13 -4 18 -12 13 -10 -6 -10 -4
0 7 6 7 12 24 12 37 0 16 -4 21 -12 16 -10 -6 -10 -4 0 7 6 7 12 23 12 35 0
12 -6 25 -12 27 -10 4 -10 6 0 6 6 1 12 12 12 25 0 13 -6 27 -12 29 -10 4 -10
6 0 6 6 1 12 12 12 25 0 13 -6 27 -12 29 -10 4 -10 6 0 6 6 1 12 12 12 25 0
13 -6 27 -12 29 -10 4 -10 6 0 6 6 1 12 12 12 25 0 13 -6 27 -12 29 -10 4 -10
6 0 6 6 1 12 8 12 17 0 9 -5 12 -12 8 -10 -6 -10 -4 0 8 20 24 16 974 -4 982
-7 3 -11 12 -8 21 3 8 9 13 13 10 4 -2 8 2 8 10 0 8 -4 12 -9 9 -4 -3 -8 0 -8
5 0 6 6 11 13 11 9 0 9 2 0 8 -8 5 -14 52 -17 142 -3 74 -7 160 -10 190 -10
116 -15 166 -21 195 -3 16 -8 47 -10 70 -2 22 -7 54 -10 70 -12 63 -20 101
-32 150 -3 17 -8 37 -9 45 -4 28 -15 75 -25 113 -5 20 -7 42 -4 47 3 6 2 10
-3 10 -5 0 -9 12 -10 28 -1 15 -4 38 -8 52 -3 14 -7 37 -8 53 0 15 -3 27 -6
27 -3 0 -6 8 -7 18 0 9 -3 35 -7 57 -3 22 -8 55 -11 72 -3 18 -8 48 -11 65
-10 62 -27 177 -29 198 0 9 -5 21 -9 28 -4 7 -6 16 -3 19 3 3 1 17 -5 32 -5
14 -12 38 -14 54 -10 67 -27 151 -37 177 -3 8 -8 36 -11 61 -2 25 -18 85 -36
135 -59 169 -78 229 -114 349 -19 67 -40 134 -47 150 -7 17 -13 35 -15 40 -1
6 -12 35 -24 65 -12 30 -39 107 -60 170 -21 63 -52 151 -69 195 -17 44 -31 85
-31 92 0 10 -37 77 -87 158 -24 39 -153 308 -153 319 0 13 -81 171 -128 249
-29 48 -66 114 -82 145 -79 150 -166 298 -197 337 -5 6 -20 26 -33 45 -25 35
-46 63 -65 84 -6 6 -26 34 -45 61 -19 28 -38 52 -41 55 -13 12 -122 186 -184
295 -38 66 -74 126 -81 133 -7 6 -16 21 -19 32 -3 11 -11 20 -16 20 -5 0 -9 5
-9 11 0 6 -19 34 -42 64 -24 29 -53 66 -65 82 -12 15 -30 38 -40 50 -10 12
-29 37 -43 54 -14 18 -41 52 -60 74 -19 23 -44 54 -55 70 -11 15 -28 35 -37
44 -10 8 -18 19 -18 24 0 4 -9 17 -20 29 -11 12 -32 40 -47 62 -15 23 -30 43
-33 46 -3 3 -23 28 -44 55 -87 111 -325 325 -362 325 -4 0 -15 6 -23 14 -17
14 -111 56 -217 96 -55 20 -84 23 -309 26 -195 2 -227 0 -285 -17z"/>
<path d="M2908 15148 c-18 -4 -46 -10 -61 -13 -93 -18 -250 -88 -351 -158 -68
-45 -254 -228 -282 -276 -10 -17 -21 -31 -25 -31 -3 0 -19 -20 -35 -45 -15
-25 -32 -45 -36 -45 -4 0 -8 -5 -8 -10 0 -11 -3 -15 -43 -61 -12 -14 -31 -38
-42 -53 -11 -15 -37 -46 -57 -69 -21 -23 -40 -50 -44 -59 -3 -10 -9 -18 -13
-18 -4 0 -25 -24 -46 -52 -38 -51 -45 -60 -73 -92 -26 -32 -140 -214 -173
-276 -19 -36 -40 -69 -46 -73 -7 -4 -13 -13 -13 -18 0 -12 -59 -101 -74 -111
-6 -4 -7 -8 -3 -8 5 0 -14 -29 -42 -65 -28 -35 -51 -69 -51 -74 0 -6 -6 -14
-13 -18 -31 -20 -140 -184 -215 -323 -19 -36 -43 -77 -54 -92 -10 -14 -18 -29
-18 -33 0 -4 -26 -50 -57 -103 -59 -102 -142 -272 -156 -322 -5 -20 -78 -160
-123 -236 -30 -51 -54 -94 -54 -97 0 -3 -5 -18 -12 -34 -14 -34 -13 -31 -23
-68 -4 -16 -10 -34 -14 -40 -3 -5 -6 -16 -8 -24 -1 -8 -8 -18 -15 -22 -7 -5
-10 -9 -6 -9 7 0 -10 -60 -46 -152 -14 -38 -23 -68 -19 -68 3 0 1 -6 -4 -12
-5 -7 -17 -35 -27 -63 -10 -27 -21 -59 -26 -70 -10 -22 -19 -55 -21 -70 0 -5
-4 -14 -9 -20 -4 -5 -13 -35 -21 -65 -16 -69 -15 -62 -21 -80 -3 -8 -20 -55
-37 -105 -57 -168 -68 -195 -76 -187 -4 4 -3 -3 3 -14 6 -12 9 -23 7 -25 -2
-3 -7 -20 -10 -39 -9 -47 -13 -65 -15 -65 -2 0 -10 -39 -25 -122 -3 -18 -12
-63 -21 -99 -8 -37 -13 -72 -10 -79 2 -7 2 -16 -2 -19 -8 -8 -14 -41 -27 -141
-3 -27 -8 -57 -10 -65 -2 -8 -7 -35 -11 -60 -7 -49 -12 -75 -14 -75 -1 0 -3
-16 -5 -35 -2 -19 -6 -46 -10 -60 -3 -14 -7 -36 -10 -50 -3 -14 -7 -34 -9 -45
-24 -107 -49 -226 -52 -250 -7 -46 -11 -70 -13 -70 -2 0 -4 -16 -6 -35 -2 -19
-7 -53 -10 -75 -3 -22 -7 -53 -8 -70 -1 -16 -5 -35 -9 -40 -9 -15 -10 -1835 0
-1835 7 0 11 -20 17 -105 2 -22 4 -40 5 -40 2 0 8 -43 15 -105 2 -19 4 -35 5
-35 2 0 4 -9 6 -20 6 -43 20 -118 29 -155 7 -32 12 -63 20 -120 4 -24 9 -48
12 -53 5 -8 13 -50 14 -77 1 -8 8 -46 16 -85 8 -38 17 -86 19 -105 3 -19 8
-42 11 -50 3 -8 6 -18 5 -22 -1 -4 7 -49 17 -100 18 -87 32 -163 35 -198 1 -9
4 -20 7 -25 3 -6 12 -32 18 -60 7 -27 15 -57 18 -65 4 -8 7 -21 9 -28 1 -8 6
-21 10 -30 4 -9 8 -24 9 -32 1 -9 9 -38 18 -65 31 -95 66 -210 69 -230 2 -11
6 -22 9 -25 4 -3 9 -18 10 -35 2 -16 7 -32 11 -35 4 -3 9 -18 12 -33 2 -14 7
-31 11 -37 3 -5 8 -20 10 -32 5 -25 36 -130 67 -226 11 -34 21 -68 22 -75 5
-28 31 -87 38 -87 4 0 7 -3 6 -7 -3 -13 25 -83 34 -83 4 0 7 -3 6 -7 -1 -9 6
-29 40 -103 14 -30 26 -57 27 -60 3 -17 41 -86 49 -92 6 -4 7 -8 3 -8 -5 0 2
-17 15 -38 12 -20 22 -39 22 -42 -1 -3 15 -39 34 -80 19 -41 36 -77 37 -80 9
-27 109 -241 131 -282 8 -16 12 -28 7 -28 -4 0 -3 -4 2 -8 6 -4 29 -47 50 -97
22 -49 55 -111 73 -137 17 -26 32 -52 32 -58 0 -5 5 -10 10 -10 6 0 10 -7 10
-15 0 -8 4 -15 8 -15 5 0 15 -12 23 -27 8 -16 21 -36 30 -46 9 -9 22 -30 30
-45 8 -15 22 -36 32 -46 9 -11 17 -26 17 -33 0 -7 4 -13 8 -13 5 0 15 -12 23
-27 8 -16 17 -30 20 -33 3 -3 23 -31 45 -63 57 -86 73 -110 81 -127 4 -8 15
-24 25 -34 10 -11 18 -23 18 -28 0 -4 6 -16 14 -25 8 -10 45 -58 82 -108 37
-49 71 -92 74 -95 3 -3 42 -50 85 -105 44 -55 83 -104 87 -110 13 -16 100
-127 128 -163 14 -18 33 -43 44 -55 10 -12 30 -38 45 -57 14 -19 33 -44 43
-55 19 -23 85 -105 96 -120 41 -54 60 -77 100 -124 26 -30 56 -65 68 -77 11
-13 29 -35 40 -50 88 -121 223 -257 300 -300 10 -6 30 -17 44 -25 14 -8 27
-17 30 -20 5 -6 54 -29 135 -64 17 -7 59 -20 95 -30 36 -9 79 -20 95 -25 17
-5 41 -8 53 -5 12 2 22 0 22 -5 0 -5 9 -7 20 -5 11 2 20 1 20 -3 0 -4 39 -7
88 -7 68 1 86 4 84 15 -3 11 0 11 12 1 8 -6 17 -8 19 -4 3 5 21 10 39 11 41 3
51 5 108 21 25 8 50 14 55 15 20 4 110 40 115 46 3 4 17 10 33 14 15 3 27 11
27 16 0 6 6 10 13 10 12 0 104 55 117 70 3 3 25 21 50 40 24 19 60 53 80 74
19 22 40 44 45 50 29 31 75 95 75 105 0 6 4 11 9 11 15 0 108 198 131 280 32
113 34 133 34 295 0 174 -8 240 -41 325 -4 8 -5 20 -4 26 0 6 -6 17 -14 24 -8
7 -15 20 -15 30 0 9 -18 50 -40 90 -22 40 -40 75 -40 77 0 2 -6 11 -12 18 -30
33 -38 45 -38 54 0 9 -105 116 -224 229 -50 47 -283 282 -280 282 2 0 -16 19
-39 43 -23 24 -51 55 -62 68 -11 13 -40 49 -65 79 -25 30 -48 57 -52 58 -5 2
-8 8 -8 13 0 8 -18 33 -46 63 -9 10 -34 44 -151 213 -26 38 -63 91 -83 118
-45 62 -112 172 -110 181 1 4 -3 10 -8 13 -5 3 -44 74 -86 156 -43 83 -81 157
-85 165 -11 21 -33 62 -42 80 -4 8 -23 47 -42 85 -19 39 -57 114 -85 168 -28
53 -49 97 -46 97 7 0 -59 125 -70 132 -6 4 -8 8 -3 8 4 0 -1 17 -12 39 -11 21
-17 41 -14 45 4 3 2 6 -4 6 -5 0 -10 6 -10 13 -1 6 -6 26 -12 42 -23 68 -52
169 -57 203 -3 20 -12 45 -20 56 -8 11 -14 26 -14 32 0 7 -10 34 -22 61 -12
26 -22 51 -22 55 -1 3 -4 10 -9 14 -4 4 -7 14 -7 23 0 9 -7 30 -16 46 -19 35
-33 77 -41 120 -3 16 -11 42 -19 56 -7 15 -10 29 -7 33 4 3 2 6 -3 6 -5 0 -10
16 -12 37 -1 20 -9 56 -17 80 -8 24 -17 61 -19 83 -2 21 -7 44 -12 52 -9 14
-12 27 -19 73 -2 17 -7 46 -11 65 -3 19 -7 43 -7 53 -1 9 -4 17 -7 17 -3 0 -6
15 -7 33 0 17 -4 43 -8 57 -3 14 -8 44 -10 67 -2 23 -6 50 -9 60 -10 34 -19
88 -17 112 0 12 -2 28 -6 35 -7 11 -12 38 -14 86 -1 14 -4 30 -7 35 -8 13 -11
28 -17 93 -3 30 -9 70 -14 91 -4 20 -7 51 -7 69 1 18 -1 32 -4 32 -6 0 -10 52
-10 125 1 28 0 55 0 60 0 6 -2 231 -4 501 -2 270 -6 496 -10 503 -4 6 -2 11 4
11 6 0 8 4 5 10 -9 15 -12 91 -3 96 4 3 4 15 -1 27 -9 26 -2 162 9 162 2 0 6
23 15 75 10 62 12 75 15 75 2 0 10 53 11 78 0 9 3 17 7 17 4 0 7 10 8 23 1 22
3 35 29 167 16 80 22 107 30 143 3 12 8 36 10 52 6 45 10 59 18 73 5 6 6 12 3
12 -2 0 0 15 5 33 5 17 12 43 14 57 2 14 9 45 16 70 6 25 13 55 15 68 18 99
39 182 59 235 8 20 12 37 9 37 -4 0 -1 7 6 15 7 8 9 15 5 15 -4 0 -3 6 3 13 6
6 10 16 10 20 0 4 4 20 10 35 6 15 13 36 18 47 4 11 8 25 10 30 7 30 38 116
55 152 10 24 19 45 19 48 0 2 11 28 24 57 13 29 30 71 37 93 8 22 18 43 24 47
5 4 7 8 2 8 -4 0 -1 13 8 30 8 16 15 31 14 32 0 2 5 17 12 33 7 17 13 36 15
43 1 8 9 21 18 30 8 10 15 19 15 22 0 5 14 43 33 88 6 15 12 30 13 35 2 4 4
10 5 15 1 4 2 11 1 16 -1 5 3 13 10 17 7 4 14 15 15 24 4 25 57 150 66 153 5
2 8 11 8 21 0 9 7 26 15 37 8 10 15 27 15 37 0 9 4 17 8 17 4 0 8 10 9 21 1
12 10 30 20 41 10 11 16 21 13 22 -7 2 34 96 43 96 5 0 5 5 2 10 -3 6 -1 10 4
10 6 0 11 5 11 11 0 6 9 23 20 39 11 15 17 30 13 34 -3 3 -2 6 4 6 6 0 27 28
49 63 21 34 44 68 51 75 7 7 13 20 13 28 0 8 4 14 8 14 5 0 16 17 25 38 22 51
125 245 135 251 4 3 23 26 42 51 19 25 44 54 56 65 11 11 27 30 35 41 8 12 35
45 60 75 26 30 89 106 140 169 116 143 122 150 187 219 135 143 231 322 267
501 2 8 4 15 5 15 15 0 14 374 0 393 -2 1 -3 5 -4 10 -5 19 -20 88 -20 92 -2
11 -30 79 -54 130 -93 201 -253 370 -447 472 -53 28 -205 89 -205 82 0 -2 -12
1 -26 7 -15 5 -43 12 -63 16 -52 9 -314 9 -353 1z"/>
<path d="M7897 13304 c-1 -1 -31 -5 -67 -8 -36 -3 -76 -8 -90 -11 -34 -6 -70
-14 -100 -21 -14 -3 -32 -7 -40 -8 -9 -1 -20 -5 -25 -8 -6 -3 -35 -13 -65 -23
-30 -10 -59 -20 -65 -24 -5 -3 -16 -6 -24 -8 -8 -1 -17 -7 -21 -13 -4 -7 -10
-11 -14 -10 -8 2 -69 -21 -76 -29 -3 -4 -18 -13 -35 -21 -43 -21 -109 -64
-113 -72 -2 -5 -10 -8 -17 -8 -8 0 -19 -8 -24 -17 -6 -10 -11 -13 -11 -8 0 7
-3 7 -8 0 -4 -6 -36 -35 -71 -65 -64 -55 -143 -130 -136 -130 2 0 -6 -10 -18
-23 -44 -46 -77 -87 -77 -96 0 -5 -3 -11 -7 -13 -11 -4 -73 -96 -76 -111 -1
-7 -5 -14 -8 -17 -13 -10 -49 -81 -49 -95 0 -8 -4 -15 -8 -15 -5 0 -13 -15
-19 -32 -6 -18 -22 -64 -36 -103 -28 -77 -53 -169 -62 -230 -4 -22 -9 -51 -12
-65 -9 -46 -10 -318 0 -377 8 -55 33 -171 42 -203 2 -8 9 -31 14 -50 5 -19 14
-48 21 -65 7 -16 14 -35 15 -40 2 -8 60 -126 110 -226 5 -10 13 -19 17 -19 5
0 8 -7 8 -15 0 -8 5 -15 10 -15 6 0 10 -4 10 -10 0 -34 274 -330 306 -330 8 0
14 -4 14 -9 0 -10 133 -101 148 -101 6 0 12 -4 14 -8 3 -9 150 -83 158 -81 3
1 24 -8 48 -20 23 -12 42 -19 42 -16 0 3 12 -1 28 -8 15 -8 59 -22 97 -31 151
-35 201 -40 360 -41 165 0 246 9 365 41 30 8 62 17 70 19 75 19 259 100 272
119 4 6 8 8 8 4 0 -9 103 52 108 64 2 4 8 8 13 8 10 0 24 10 60 43 10 9 22 17
26 17 8 0 32 23 136 127 97 97 107 108 107 117 0 4 13 21 30 39 16 18 30 35
30 38 0 4 15 30 34 57 68 101 163 328 181 435 3 17 8 34 10 38 3 4 7 24 10 45
3 22 7 50 10 64 18 80 11 360 -11 460 -3 14 -7 34 -9 45 -13 83 -58 212 -117
335 -46 95 -129 232 -164 270 -8 8 -33 37 -57 64 -36 42 -80 86 -157 156 -39
36 -100 80 -109 80 -6 0 -11 4 -11 8 0 4 -25 21 -55 37 -30 17 -55 34 -55 39
0 5 -3 7 -6 3 -3 -3 -24 5 -45 19 -21 13 -39 21 -39 18 0 -4 -9 1 -20 11 -11
10 -20 15 -20 12 0 -4 -21 3 -47 14 -53 23 -125 47 -163 55 -14 3 -42 9 -63
15 -21 6 -50 12 -65 14 -15 2 -49 6 -76 10 -47 7 -263 14 -269 9z"/>
</g>
</svg>
