<svg
  xmlns="http://www.w3.org/2000/svg"
  width="24"
  height="24"
  viewBox="-3 0 45 38"
>
  <defs>
    <filter id="a">
      <feGaussianBlur in="SourceGraphic" stdDeviation=".2" />
    </filter>
  </defs>
  <g>
    <path d="M17 15v-1a11 11 0 00-2 0 12 12 0 00-6 21 12 12 0 018-20z" />
        <path
      d="M17 32c3 0 5-2 6-5V2h4a9 9 0 010-2h-6v26c0 2-3 5-6 5a5 5 0 01-2-1 5 5 0 004 2zm19-22V9a9 9 0 01-5-1 9 9 0 005 2z"
    />
      </g>
      <path
    d="M31 8a9 9 0 01-2-6h-2a9 9 0 004 6zM15 20a5 5 0 00-2 10 5 5 0 014-8 6 6 0 012 0v-7a11 11 0 00-2 0v5a5 5 0 00-2 0zM36 10v5a15 15 0 01-9-2v12c0 7-5 12-12 12a11 11 0 01-6-2 12 12 0 0020-8V14a15 15 0 009 3v-6a9 9 0 01-2-1z"
  />
</svg>
