<svg
  xmlns="http://www.w3.org/2000/svg"
  width="20"
  height="20"
  viewBox="0 0 251 260"
>
  <g fill="none" fill-rule="evenodd">
    <path
      fill="#f90"
      fill-rule="nonzero"
      d="M222 210c-106 50-171 9-213-17-2-2-7 0-3 5 14 17 60 57 119 57 60 0 95-32 100-38 4-5 1-9-3-7zm29-16c-3-4-17-4-26-3s-23 6-22 10h8c7-1 24-3 28 2 3 5-6 27-7 31-2 4 0 5 3 2 3-2 9-9 12-18 4-9 6-21 4-24z"
    />
    <path
      fill="#000"
      d="M151 108c0 13 0 24-7 36-5 9-13 15-23 15-13 0-20-10-20-24 0-29 25-34 50-34zm34 82c-2 2-6 2-8 1-11-9-13-13-20-22-18 19-31 24-55 24-29 0-51-17-51-52 0-28 15-46 36-55 19-9 44-10 64-12v-5c0-8 0-17-4-24-4-6-12-9-19-9-13 0-25 7-27 20-1 4-3 6-6 7l-33-4c-3 0-6-3-5-7 8-40 43-52 75-52 17 0 38 5 51 17 17 16 15 36 15 58v53c0 16 7 23 13 31 2 3 2 7 0 9l-26 22"
    />
    <path
      fill="#f90"
      fill-rule="nonzero"
      d="M222 210c-106 50-171 9-213-17-2-2-7 0-3 5 14 17 60 57 119 57 60 0 95-32 100-38 4-5 1-9-3-7zm29-16c-3-4-17-4-26-3s-23 6-22 10h8c7-1 24-3 28 2 3 5-6 27-7 31-2 4 0 5 3 2 3-2 9-9 12-18 4-9 6-21 4-24z"
    />
    <path
      fill="#000"
      d="M151 108c0 13 0 24-7 36-5 9-13 15-23 15-13 0-20-10-20-24 0-29 25-34 50-34zm34 82c-2 2-6 2-8 1-11-9-13-13-20-22-18 19-31 24-55 24-29 0-51-17-51-52 0-28 15-46 36-55 19-9 44-10 64-12v-5c0-8 0-17-4-24-4-6-12-9-19-9-13 0-25 7-27 20-1 4-3 6-6 7l-33-4c-3 0-6-3-5-7 8-40 43-52 75-52 17 0 38 5 51 17 17 16 15 36 15 58v53c0 16 7 23 13 31 2 3 2 7 0 9l-26 22"
    />
  </g>
</svg>
