<svg
  id="Layer_1"
  data-name="Layer 1"
  xmlns="http://www.w3.org/2000/svg"
  viewBox="0 0 414.79 342.82"
><defs><style>.cls-1{fill:#ffffff;}.cls-2{fill:#ffffff;}</style></defs><path
    class="cls-1"
    d="M63.06,6.85c34.26,0,68.52-.11,102.79.12,4.75,0,6.08-1.35,5.55-5.82-.37-3.12.13-6.33-.11-9.47-.41-5.25.41-8.6-.53-14.7-.11-.77,0,0-.56-2.72-1.47-11.87-4-17.24-5.7-25-.86-3.91-1.4-8.92-4.56-13-2-2.52-1.69-7.29-3.83-10.64-2-3.14-3.27-6.68-5-10-2.56-4.86-5-9.8-7.32-14.81a19.12,19.12,0,0,0-2.32-4.1c-8.52-10.94-17.05-21.84-27.66-30.9-1.31-1.12-1.29-2.65-1.33-4.13-.18-5.64.21-11.36-.54-16.92-1.05-7.79,3.47-12.56,8.12-17.46a2.78,2.78,0,0,1,1.76-.74c7.14-.06,14.36-.64,21.41.21,3.23.38,6.47,3.21,9.08,5.6,6.33,5.81,13.18,11.37,18.12,18.26,4.43,6.18,9.94,11.57,13.53,18.52a78.16,78.16,0,0,0,7.32,10.68c3.32,4.39,5.44,9.32,8.24,13.86,3,4.83,4,10.69,8,14.88a4.58,4.58,0,0,1,.88,2.26c1.11,6,3.95,11.48,5.44,17.21,1.24,4.82,3.64,9.22,4.35,14.29,1.09,7.69,2.15,15.59,3.9,22.93a88.53,88.53,0,0,1,2,18.2c.33,11.8.1,23.61.09,35.41,0,8.63-2.73,16.9-3.77,25.42-1,8.19-3.76,16.51-6.14,24.57-1.85,6.27-3.1,13.33-7.78,18.69a5.28,5.28,0,0,0-1,3.24c0,4.75-2.81,8.38-5.23,12-1.46,2.17-2,4.71-3.1,6.89-4,8.09-11.1,14.16-14.12,22.74a2,2,0,0,1-.59.78c-10.14,8.4-15.65,21-26.2,29-4.41,3.37-8.73,6.58-14.67,6.25a18.13,18.13,0,0,0-4.48.05c-10,1.93-17.08-2.5-23-10a6.3,6.3,0,0,1-1.53-3.52c-.15-1.82-.4-3.64-.47-5.46-.62-17.91-.68-18,14.49-32.57,6.14-5.91,10.17-13.18,14.58-20.3,2.26-3.65,5.27-6.73,7-10.89,2.16-5.19,5.5-9.89,7.81-15,.71-1.59,1-3.15,2.32-4.59a6.2,6.2,0,0,0,1.42-5c-.48-1.93-2.85-1.08-4.4-1.09-12.31-.06-24.62,0-36.93,0q-75.84,0-151.69.13c-7.63,0-14.64-1.41-19.9-7.13-2.94-3.2-5.37-7-5.64-11.76-.29-5.15-.79-10.36.1-15.42,1.51-8.64,8.39-19.58,20.46-19.31,33.75.75,67.52.26,101.29.26Z"
    transform="translate(190.54 173.68)"
  /><path
    class="cls-2"
    d="M-190.37.08c0-8.17-.45-14.19.1-20.13a146,146,0,0,1,6.14-32,6.71,6.71,0,0,0,.27-2c.23-7.09,3.84-13.17,5.63-19.74,1.22-4.52,4.25-8.6,4-13.4-.18-3.66,2.44-6.31,3.89-8.62,5-8,8-16.89,13.93-24.47a245.21,245.21,0,0,0,15.73-22c6.36-10.23,15.48-17.4,23.59-25.61,3-3,7.64-6.39,13.31-5.43,2.75.47,5.64.05,8.47.06,11.35.06,16.43,5.82,17.48,17.19,1.28,13.81-1.66,25-13.41,33.72-7.27,5.39-11.47,13.64-15.9,21.57-2,3.52-4.84,6.6-6.93,10.27-1.62,2.83-3,6-4.63,8.78a83.22,83.22,0,0,0-8.94,21.46c-1.22,5.14-3,10.18-4.19,15.36-1.59,7-.87,14.57-3.16,21-4.59,12.89-.81,25.82-2.31,38.6,4,6,1.78,13.22,3.53,19.44,2,7.22,3.1,14.79,5.88,21.69,3.41,8.47,6.68,17,11.15,25.15a277.71,277.71,0,0,0,17.89,27.7c5.53,7.76,12.32,13.93,18.44,20.9,3.31,3.77,2.79,25.05,0,29.18-8,11.86-19.79,11-31.26,9.24-5.54-.85-10.18-5.49-14.35-9.65-3.4-3.39-7.45-6.37-10-10.31-4.23-6.48-9.56-12.08-13.71-18.66a108.89,108.89,0,0,0-8.17-11.91c-3.1-3.7-4.82-8.2-7.08-12.38-1.56-2.87-2.64-6-4.64-8.81-2.42-3.34-1.53-8.22-4.39-11.69-3.34-4-2.37-10-5.87-14a1.36,1.36,0,0,1-.32-.92c.79-6.73-2.61-12.69-4-19-1.48-6.72-.8-14.34-3.35-19.93C-192.6,19.75-188.42,8.73-190.37.08Z"
    transform="translate(190.54 173.68)"
  /><path
    class="cls-2"
    d="M-31.53-72.16c0-2.83.05-5.65,0-8.47-.13-6.2,3.2-10.84,6.79-15.39,3.78-4.79,8.85-8,14-11,1.29-.77,3.23-.45,4.88-.59,7.8-.67,15.68-.92,23.35.36,3.46.57,7,2.66,10,5.2A56.73,56.73,0,0,1,39.27-87.54,5.44,5.44,0,0,1,40-85.22c.64,9,1.33,18-.25,26.82-1,5.58-5.75,9.77-9.57,14.2-5.4,6.23-11.49,9.52-19.8,8.38a36,36,0,0,0-5,0c-19.09,0-19.3.19-31.73-13.81-2.49-2.8-5.18-6.51-5-11,.13-3.82,0-7.64,0-11.45Z"
    transform="translate(190.54 173.68)"
  /></svg>
