<svg data-name="Equippr Icon" xmlns="http://www.w3.org/2000/svg" viewBox="0 0 416 344">
  <path d="M361 176v-23a46 46 0 00-1-11l-5-23a143 143 0 00-6-17l-9-22a53 53 0 00-3-5l-4-7a37 37 0 00-5-7l-9-11-4-5c-11-15-3-38 16-41 9-1 17 1 23 7l9 10 10 14a86 86 0 006 10c4 4 6 9 9 14l4 7 4 9 3 7 7 21a48 48 0 012 6l5 31a102 102 0 011 13 1265 1265 0 011 35l-1 1-1 7-2 12-3 16-3 10-5 16-5 11-6 14c-2 6-6 11-10 16-5 9-12 17-19 26l-10 13a27 27 0 01-19 10 19 19 0 01-3 0c-11-1-19-5-24-15s-4-19 2-28l8-8a142 142 0 0018-21l11-20 5-12a24 24 0 002-5l-2-2H144a23 23 0 01-13-5 26 26 0 01-11-21 26 26 0 0121-26 22 22 0 014-1h214zM1 170v-14a88 88 0 012-19l3-17 3-14 6-16 4-9a14 14 0 001-3l9-17 4-5 6-10 10-13 5-7a25 25 0 0133-6c7 5 11 12 11 21 0 6-2 12-7 17L81 70a42 42 0 00-5 8 49 49 0 01-3 5l-7 14-5 12c-4 8-6 17-7 26l-4 16a37 37 0 000 6v21a77 77 0 002 14l2 12 2 9 1 5 1 4 4 10 3 7 9 18a119 119 0 0024 29 25 25 0 018 19 25 25 0 01-21 25c-11 1-19-3-25-11l-10-12a295 295 0 01-22-31 73 73 0 01-5-9l-8-18a106 106 0 01-3-11l-5-15-2-12-3-14a62 62 0 01-1-11v-16z" fill="#dc3545"/>
  <path d="M227 96a35 35 0 11-35-35 36 36 0 0135 35z" fill="#dc3545"/>
</svg>
